# xmcd
#
# Track frame offsets:
# 150
# 19347
# 34823
# 49507
# 62253
# 79948
# 96605
# 112131
# 129265
# 145358
# 168022
# 182053
# 197835
# 215234
#
# Disc length: 3058 seconds
#
#
# Revision: 0
# Processed by: cddbd v1.5.2PL0 Copyright (c) Steve Scherf et al.
# Submitted via: FreeRIP 2.96 
#
DISCID=cb0bf00e
DTITLE=Ronny e Rangel - Nos Bailes da Vida
DYEAR=2007
DGENRE=Sertanejo
TTITLE0=Nos bailes da vida
TTITLE1=Mistura Brasileira - Grita ai
TTITLE2=No clarao da lua
TTITLE3=Brincando com fogo
TTITLE4=Bote Fe
TTITLE5=So quem ama
TTITLE6=O meu  ponto fraco
TTITLE7=O meu jeito de amar
TTITLE8=A Dama e o Vagabundo
TTITLE9=Entre lagrimas - Devolva a passagem - Foto 3 x 4
TTITLE10=Inquilina de violeiro
TTITLE11=Vontade dividida
TTITLE12=Baladeira
TTITLE13=Eh saudade
EXTD=
EXTT0=
EXTT1=
EXTT2=
EXTT3=
EXTT4=
EXTT5=
EXTT6=
EXTT7=
EXTT8=
EXTT9=
EXTT10=
EXTT11=
EXTT12=
EXTT13=
PLAYORDER=
